<?xml version="1.0" encoding="utf-8"?>
<svg version="1.1" id="Capa_1" x="0px" y="0px" width="444.819px" height="444.819px" viewBox="0 0 444.819 444.819" style="enable-background:new 0 0 444.819 444.819;" xmlns="http://www.w3.org/2000/svg">
  <g>
    <path d="M 433.968 166.162 L 248.387 352.029 C 240.968 359.073 232.307 362.595 222.41 362.595 C 212.322 362.595 203.758 359.074 196.713 352.029 L 10.848 166.162 C 3.615 158.932 0 150.27 0 140.182 C 0 129.902 3.619 121.339 10.848 114.489 L 32.259 93.076 C 39.113 85.846 47.679 82.224 57.956 82.224 C 68.234 82.224 76.798 85.845 83.653 93.076 L 222.41 231.548 L 361.168 93.079 C 368.016 85.851 376.581 82.227 386.868 82.227 C 396.95 82.227 405.615 85.851 412.843 93.079 L 434.252 114.491 C 441.295 121.534 444.819 130.099 444.819 140.184 C 444.819 150.274 441.205 158.935 433.968 166.162 Z"/>
  </g>
  <g/>
  <g/>
  <g/>
  <g/>
  <g/>
  <g/>
  <g/>
  <g/>
  <g/>
  <g/>
  <g/>
  <g/>
  <g/>
  <g/>
  <g/>
</svg>