<?xml version="1.0" encoding="UTF-8"?>
<svg id="Layer_2" data-name="Layer 2" xmlns="http://www.w3.org/2000/svg" viewBox="0 0 1275.14 1666.83">
  <defs>
    <style>
      .cls-1 {
        fill: #585858;
      }

      .cls-2 {
        fill: #575757;
      }

      .cls-3 {
        fill: #565656;
      }

      .cls-4 {
        fill: #777;
      }

      .cls-5 {
        fill: #2a2a2a;
      }

      .cls-6 {
        fill: #5a5a5a;
      }

      .cls-7 {
        fill: #2b2b2b;
      }

      .cls-8 {
        fill: #595959;
      }

      .cls-9 {
        fill: #5b5b5b;
      }
    </style>
  </defs>
  <g id="Layer_1-2" data-name="Layer 1">
    <g>
      <path class="cls-4" d="M1137.17,566.16c-5.79-.42-11.59-.66-17.35-1.31-9.97-1.12-19.92-2.5-29.88-3.76-9.8-1.25-19.6-2.53-29.41-3.72-9.33-1.14-18.68-2.15-28.02-3.29-10.13-1.24-20.25-2.6-30.39-3.83-9.17-1.11-18.35-2.06-27.52-3.17-10.13-1.23-20.25-2.6-30.39-3.82-9.33-1.12-18.69-2.06-28.02-3.18-9.97-1.2-19.92-2.56-29.88-3.79-4.42-.55-8.87-.97-13.3-1.44-2.1-.47-4.17-1.14-6.3-1.39-29.18-3.54-58.36-7.02-87.54-10.52-3.42-.49-6.82-1.2-10.26-1.42-4.38-.28-5.99-2.27-5.81-6.67,.28-6.62,.03-13.25,.01-19.88,.3-10.81,.75-21.61,.88-32.42,.4-33.61,.69-67.22,1-100.84,.36-38.6,.66-77.21,1.04-115.82,.37-37.6,.8-75.21,1.21-112.81,14.07,1.29,28.14,2.62,42.21,3.86,23.85,2.1,47.7,4.08,71.54,6.25,27.48,2.5,54.94,5.24,82.42,7.74,27.48,2.5,54.98,4.78,82.47,7.24,32.62,2.92,65.22,5.97,97.84,8.85,3.99,.35,5.6,2.11,5.48,6.04-.14,4.66,0,9.32,.01,13.99-.97,29.26-1.95,58.53-2.91,87.79-1.01,30.76-2.07,61.52-3.01,92.28-.83,27.44-1.5,54.89-2.28,82.33-.31,10.81-.73,21.62-1.09,32.42-.92,28.1-1.84,56.2-2.75,84.29Z"/>
      <path class="cls-4" d="M423.27,480.8c-9.97-1.23-19.95-2.44-29.91-3.72-4.56-.58-9.09-1.43-13.66-1.92-2.86-.31-3.73-1.74-3.29-4.36,.21-2.14,.62-4.28,.59-6.42-.18-14.15-.47-28.3-.68-42.45-.68-45.46-1.34-90.91-2.02-136.37-.33-22.15-.71-44.29-.97-66.44-.46-38.64-.87-77.27-1.23-115.91-.02-2.09,.66-4.18,1.02-6.27,11.58,1.1,23.16,2.21,34.74,3.31,20.18,1.91,40.36,3.86,60.55,5.69,20.19,1.84,40.4,3.52,60.59,5.34,20.69,1.86,41.37,3.83,62.05,5.7,19.86,1.79,39.73,3.46,59.59,5.26,24.49,2.22,48.98,4.56,73.47,6.74,6.16,.55,7.02,1.24,7.04,7.61,.04,18.15,.05,36.3,.07,54.44-.35,54.32-.72,108.64-1.06,162.96-.34,53.98-.64,107.97-.97,161.95-1.3,.06-2.63,.31-3.91,.17-11.73-1.33-23.46-2.72-35.18-4.12-26.09-3.11-52.18-6.22-78.26-9.37-29.22-3.52-58.44-7.09-87.66-10.63-26.58-3.22-53.15-6.5-79.74-9.6-7.03-.82-14.13-1.09-21.2-1.61Z"/>
      <path class="cls-4" d="M417.02,873.04c-8.58-1.12-17.16-2.24-25.74-3.35-1.62-.21-3.36-.1-4.82-.7-1.27-.53-3.02-1.74-3.16-2.83-.6-4.71-.69-9.49-.96-14.25,.25-.78,.73-1.56,.73-2.34,.01-18.03-.02-36.05-.08-54.08,0-.79-.44-1.58-.67-2.37-.33-2.07-.65-4.14-.98-6.21,.29-1.61,.82-3.21,.82-4.82,.03-17.04,0-34.08-.08-51.13,0-1.62-.5-3.23-.77-4.85-.33-3.4-.65-6.8-.98-10.2,0-19.6-.01-39.2-.02-58.8-.33-2.07-.65-4.13-.98-6.2,.29-1.61,.82-3.21,.83-4.82,.03-17.38,0-34.75-.08-52.13,0-1.62-.5-3.23-.77-4.85-.33-2.73-.65-5.47-.98-8.2l-.02-59.8c-.14-4.05-.27-8.1-.41-12.15,1.66,.16,3.32,.29,4.97,.5,22.78,2.82,45.57,5.69,68.35,8.48,29.06,3.57,58.13,7.06,87.19,10.64,22.29,2.75,44.57,5.61,66.87,8.36,26.42,3.26,52.85,6.45,79.27,9.66,14.86,1.81,29.73,3.61,44.59,5.41-.27,31.11-.58,62.22-.82,93.34-.37,48.42-.72,96.84-1.01,145.26-.16,26.46-.18,52.92-.26,79.39-.29,2.12-.82,4.25-.83,6.37-.09,12-.05,24-.09,36-.02,6.63-.69,7.11-7.33,6.09-35.72-5.46-71.44-10.93-107.16-16.34-48.07-7.28-96.15-14.53-144.23-21.75-16.79-2.52-33.6-4.89-50.4-7.33Z"/>
      <path class="cls-4" d="M2.32,101.11c-.39-4.7-.85-9.39-1.14-14.1-.35-5.7-.56-11.41-.83-17.11,.58-5.41,3.95-6.47,8.72-5.91,7.1,.82,14.22,1.39,21.34,2.03,16.38,1.47,32.77,2.9,49.15,4.39,20.18,1.84,40.36,3.76,60.55,5.6,16.05,1.47,32.1,2.87,48.15,4.33,17.04,1.55,34.08,3.12,51.12,4.68,16.87,1.55,33.74,3.14,50.62,4.64,16.71,1.49,33.43,2.9,50.15,4.35,.29,11.64,.64,23.28,.85,34.92,.7,40.09,1.35,80.19,2.03,120.28,.66,39.59,1.39,79.19,1.97,118.78,.51,34.28,.85,68.56,1.27,102.84-7.55-.67-15.12-1.21-22.65-2.05-9.81-1.1-19.6-2.44-29.4-3.68-12.57-1.59-25.14-3.21-37.72-4.75-9.32-1.14-18.67-2.15-27.99-3.27-12.91-1.56-25.82-3.21-38.74-4.74-9.65-1.14-19.32-2.13-28.98-3.25-9.32-1.08-18.64-2.24-27.96-3.38-9.8-1.2-19.61-2.38-29.41-3.61-12.73-1.6-25.45-3.28-38.19-4.83-9.33-1.14-18.67-2.13-28.01-3.17-6.39-.71-12.78-1.31-19.16-2.1-2.59-.32-4.06-1.7-3.96-4.69,.09-2.45-.48-4.93-.75-7.4-.06-8.3-.12-16.61-.17-24.91-.34-1.26-.93-2.51-.98-3.79-.4-11.3-.7-22.6-1.04-33.9-.67-22.42-1.34-44.84-2.03-67.26-.31-9.96-.66-19.91-1-29.87-.27-8.36-.53-16.72-.8-25.08-.39-2.71-.99-5.4-1.14-8.12-.38-7.02-.57-14.06-.83-21.09,0-8.26-.02-16.53-.02-24.79-.39-2.1-1.06-4.19-1.12-6.3-.43-16.21-.74-32.42-1.09-48.63-.27-8.36-.53-16.72-.8-25.08Z"/>
      <path class="cls-4" d="M418.03,1248.04c-9.3-1.59-18.59-3.18-27.89-4.77-.33-6.94-.68-13.89-.97-20.83-.31-7.44-.56-14.88-.84-22.33-.33-2.4-.65-4.8-.98-7.2,.29-1.61,.82-3.21,.82-4.82,.03-17.04,0-34.08-.08-51.13,0-1.62-.5-3.23-.77-4.85-.32-3.4-.65-6.81-.97-10.21,.28-1.28,.8-2.55,.8-3.83,.03-16.04,0-32.07-.08-48.11,0-1.29-.49-2.57-.75-3.85-.07-1.64-.14-3.29-.21-4.93,0-19.07,.02-38.14-.03-57.21,0-1.62-.5-3.24-.77-4.86-.32-4.07-.65-8.14-.97-12.21,.28-1.61,.81-3.21,.81-4.82,.04-15.04,0-30.08-.08-45.12,0-1.62-.5-3.23-.76-4.84-.33-3.74-.65-7.48-.98-11.21,.28-4.78,.8-9.57,.77-14.35-.02-4.14,1.14-5.55,5.59-4.83,24.16,3.92,48.35,7.59,72.54,11.29,44.26,6.78,88.54,13.51,132.8,20.3,40.81,6.27,81.61,12.56,122.4,18.95,3.01,.47,5.88,1.83,8.81,2.78-.73,112.98-1.47,225.97-2.2,338.95-.29,1.29-.88,2.59-.8,3.86,.26,3.99-1.58,4.97-5.16,4.18-3.25-.72-6.53-1.26-9.81-1.85-77.27-13.94-154.54-27.89-231.81-41.81-19.48-3.51-38.98-6.89-58.47-10.33Z"/>
      <path class="cls-4" d="M721.89,1666.83c-5.68-.77-11.42-1.23-17.01-2.37-27.71-5.68-55.38-11.55-83.07-17.34-21.56-4.51-43.13-9.01-64.7-13.49-31.39-6.52-62.8-13.01-94.19-19.55-22.53-4.7-45.06-9.46-67.58-14.22-.45-.1-.83-.53-1.24-.81,0-18.86,0-37.72-.04-56.58,0-1.12-.48-2.24-.74-3.36-.33-3.4-.65-6.8-.98-10.21,.25-.78,.73-1.56,.73-2.34,.01-17.69-.02-35.39-.08-53.08,0-.79-.44-1.58-.67-2.37-.32-3.4-.65-6.81-.97-10.21,.25-.78,.72-1.56,.73-2.34,.01-17.69-.02-35.39-.08-53.08,0-.79-.44-1.58-.67-2.37-.33-1.4-.65-2.8-.98-4.21,.29-1.61,.83-3.21,.83-4.82,.03-17.71,0-35.42-.08-53.12,0-1.62-.5-3.23-.77-4.85-.32-3.74-.65-7.48-.97-11.21,.28-2.12,.8-4.24,.81-6.36,.05-13.33,.11-26.66-.09-39.98-.06-4.39,1.42-5.38,5.66-4.59,61.07,11.32,122.16,22.53,183.25,33.74,46.02,8.45,92.04,16.93,138.09,25.22,4.48,.81,6.23,2.54,6.14,7.15-.22,11.66-.02,23.32,0,34.98-.3,37.48-.64,74.96-.9,112.44-.4,57.64-.75,115.28-1.07,172.93-.01,2.13,.41,4.27,.63,6.41Z"/>
      <path class="cls-3" d="M340.14,94.01c-16.72-1.45-33.44-2.86-50.15-4.35-16.88-1.51-33.75-3.09-50.62-4.64-17.04-1.56-34.08-3.14-51.12-4.68-16.05-1.46-32.1-2.86-48.15-4.33-20.18-1.85-40.36-3.76-60.55-5.6-16.38-1.5-32.77-2.92-49.15-4.39-7.12-.64-14.24-1.21-21.34-2.03-4.76-.55-8.14,.5-8.72,5.91-1.27-5.19,.95-7.41,5.96-9.16C60.7,41.79,115.05,22.7,169.26,3.26c9.82-3.52,19.34-3.88,29.44-2.52,9.33,1.26,18.79,1.46,28.19,2.27,10.05,.87,20.07,2,30.12,2.86,9.4,.81,18.82,1.35,28.22,2.13,14.36,1.2,28.72,2.53,43.08,3.76,9.22,.79,18.44,1.45,27.66,2.23,14.65,1.25,29.3,2.56,43.96,3.83,8.58,.74,17.17,1.44,25.75,2.17,15.31,1.3,30.61,2.67,45.92,3.91,9.57,.78,19.15,1.65,28.74,1.96,4.53,.14,6.44,1.48,5.93,6.13-.31,2.78-.06,5.62-.06,9.17,7.08-2.9,13.89-4.98,19.97-8.36,7.68-4.27,15.56-3.2,23.53-2.62,5.92,.43,11.81,1.25,17.72,1.79,14.84,1.35,29.69,2.71,44.55,3.91,13.86,1.13,27.74,1.96,41.59,3.11,13.68,1.14,27.33,2.59,41.01,3.81,9.06,.81,18.13,1.41,27.19,2.18,14.67,1.26,29.34,2.61,44.01,3.86,9.08,.77,18.17,1.37,27.25,2.14,14.51,1.23,29.01,2.58,43.52,3.81,13,1.11,26,2.11,39,3.23,.84,.07,1.63,.69,2.44,1.05-7.21,3.45-14.44,6.87-21.62,10.36-39.84,19.37-79.64,38.81-119.53,58.07-3.56,1.72-4.77,3.85-4.73,7.69,.15,16.32,.06,32.65-.04,48.97-.01,2.29-.54,4.58-.82,6.87-.02-18.15-.04-36.3-.07-54.44-.01-6.36-.88-7.06-7.04-7.61-24.5-2.18-48.98-4.52-73.47-6.74-19.86-1.8-39.73-3.47-59.59-5.26-20.69-1.86-41.37-3.83-62.05-5.7-20.19-1.82-40.4-3.5-60.59-5.34-20.19-1.84-40.37-3.79-60.55-5.69-11.58-1.09-23.16-2.2-34.74-3.3,1.04-.53,2.04-1.12,3.11-1.57,40.63-16.74,81.22-33.56,121.94-50.06,5.35-2.17,7.55-4.97,7.13-10.72-.49-6.77-.51-7.07-6.83-4.51-27.16,10.98-54.3,22.01-81.46,32.97-25.62,10.34-51.26,20.63-76.88,30.94Z"/>
      <path class="cls-5" d="M1137.17,566.16c.92-28.1,1.83-56.2,2.75-84.29,.35-10.81,.78-21.61,1.09-32.42,.78-27.44,1.45-54.89,2.28-82.33,.93-30.76,1.99-61.52,3.01-92.28,.96-29.26,1.94-58.53,2.91-87.79,.32-4.61,.95-9.22,.87-13.82-.08-3.97,1.33-6.35,4.75-8.4,38.5-23.03,76.9-46.2,115.38-69.27,1.44-.86,3.28-1.05,4.93-1.56-.95,24.53-1.91,49.05-2.85,73.58-.41,10.79-.79,21.58-1.18,32.37-1.02,28.72-1.98,57.45-3.05,86.16-.93,24.89-1.92,49.79-2.99,74.68-1.22,28.19-2.57,56.37-3.84,84.56-.29,6.47-.22,12.98-.84,19.42-.21,2.17-1.48,4.84-3.15,6.18-20.29,16.31-40.75,32.41-61.16,48.57-19.64,15.55-39.28,31.11-58.91,46.66Z"/>
      <path class="cls-5" d="M724.07,1294c.73-112.98,1.47-225.97,2.2-338.95,1.56-1.72,2.95-3.66,4.72-5.11,42.19-34.61,84.41-69.18,126.64-103.74,2.35-1.92,4.82-3.7,8-6.13,.21,4.06,.37,7,.52,9.93-.63,41.69-1.29,83.37-1.86,125.06-.18,13.14,0,26.29-.22,39.43-.53,30.87-1.22,61.74-1.82,92.61-.39,19.93-.81,39.87-.99,59.8-.03,3.65-1.14,6.3-3.76,8.7-6.95,6.39-13.77,12.92-20.64,19.4-9.38,8.67-18.88,17.21-28.1,26.05-14.28,13.67-28.32,27.6-42.56,41.32-12.68,12.21-25.5,24.28-38.28,36.39-.86,.81-1.93,1.4-3.43,2.47-.17-2.95-.29-5.09-.4-7.23Z"/>
      <path class="cls-7" d="M727.07,869.99c.08-26.46,.1-52.92,.26-79.39,.29-48.42,.64-96.84,1.01-145.26,.24-31.11,.54-62.22,.82-93.34,13.13-8.53,26.16-17.2,39.45-25.47,3.08-1.92,7.02-2.44,10.57-3.61,29.18,3.5,58.37,6.98,87.54,10.52,2.13,.26,4.2,.92,6.3,1.39-.62,1.28-1.78,2.56-1.8,3.85-.45,35.74-.68,71.49-1.15,107.23-.56,42.55-1.28,85.1-2,127.65-.16,9.62-.8,19.23-.85,28.84-.02,3.36-1.07,5.62-3.63,7.62-9.59,7.5-19.1,15.11-28.62,22.7-.35,.28-.5,.82-.74,1.24-2,1.16-4.18,2.08-5.96,3.51-31.77,25.57-63.48,51.2-95.23,76.81-1.6,1.29-3.32,2.42-5.98,4.35v-48.67Z"/>
      <path class="cls-5" d="M721.89,1666.83c-.22-2.14-.64-4.27-.63-6.41,.33-57.64,.68-115.28,1.07-172.93,.26-37.48,.6-74.96,.9-112.44,.29-2.12,.8-4.24,.83-6.37,.1-9.82,.24-19.64,0-29.46-.1-4.23,1.42-7.2,4.41-10.02,14.15-13.36,28.25-26.76,42.19-40.34,20.98-20.43,41.79-41.03,62.72-61.52,7.73-7.56,15.57-15,23.41-22.45,.74-.7,1.76-1.11,3.35-2.09v22.18c-.06,17.48-.04,34.96-.22,52.44-.09,9.29-.67,18.57-.79,27.85-.41,30.93-.68,61.87-1.07,92.8-.27,21.46-.63,42.92-1,64.38-.3,17.45-.58,34.91-1.08,52.35-.06,2.12-.96,4.64-2.34,6.21-11.01,12.53-22.2,24.91-33.41,37.27-14.12,15.58-28.35,31.06-42.46,46.65-14.54,16.08-28.98,32.25-43.49,48.36-4.09,4.55-8.28,9.01-12.42,13.52Z"/>
      <path class="cls-3" d="M1275.14,93.99c-1.65,.5-3.49,.7-4.93,1.56-38.47,23.07-76.88,46.25-115.38,69.27-3.43,2.05-4.83,4.43-4.75,8.4,.09,4.6-.55,9.21-.87,13.82-.02-4.66-.16-9.33-.01-13.99,.12-3.93-1.49-5.68-5.48-6.04-32.62-2.88-65.23-5.93-97.84-8.85-27.49-2.46-54.99-4.74-82.47-7.24-27.48-2.5-54.94-5.23-82.42-7.74-23.84-2.17-47.7-4.14-71.54-6.25-14.07-1.24-28.14-2.57-42.21-3.86,.71-.43,1.39-.91,2.12-1.28,34.26-16.93,68.53-33.83,102.77-50.8,2.18-1.08,4.08-2.73,6.11-4.11,9.94-4.78,19.83-9.68,29.86-14.27,2.29-1.05,5.09-1.64,7.59-1.46,15.48,1.12,30.95,2.46,46.42,3.85,17.62,1.58,35.23,3.36,52.86,4.88,13.7,1.18,27.43,1.97,41.12,3.13,13.67,1.16,27.31,2.64,40.98,3.87,8.91,.8,17.84,1.36,26.75,2.12,14.66,1.25,29.32,2.61,43.98,3.85,9.08,.77,18.18,1.37,27.26,2.14,14.51,1.23,29.02,2.62,43.53,3.81,10.39,.85,20.81,1.34,31.19,2.31,1.86,.17,3.58,1.88,5.36,2.88Z"/>
      <path class="cls-7" d="M878.24,76.89c-2.03,1.38-3.93,3.03-6.11,4.11-34.24,16.97-68.51,33.87-102.77,50.8-.74,.36-1.42,.85-2.12,1.28-.4,37.6-.84,75.21-1.21,112.81-.38,38.6-.69,77.21-1.04,115.82-.31,33.61-.6,67.22-1,100.84-.13,10.81-.58,21.61-.88,32.42-1.74,.96-3.52,1.85-5.21,2.9-9.58,6.01-19.13,12.06-28.69,18.09,.32-53.98,.63-107.97,.97-161.95,.34-54.32,.7-108.64,1.06-162.96,.29-2.29,.81-4.58,.82-6.87,.1-16.32,.19-32.65,.04-48.97-.03-3.84,1.17-5.97,4.73-7.69,39.89-19.26,79.69-38.7,119.53-58.07,7.19-3.5,14.41-6.91,21.62-10.36,.08,5.93,.17,11.87,.25,17.8Z"/>
      <path class="cls-3" d="M727.07,869.99c0,15.79,0,31.58,0,48.67,2.66-1.92,4.38-3.06,5.98-4.35,31.74-25.6,63.46-51.24,95.23-76.81,1.78-1.43,3.96-2.35,5.96-3.51,10.12,1.35,20.24,2.64,30.34,4.15,.92,.14,2.31,1.62,2.32,2.49,.02,3.12-.45,6.24-.74,9.36-.15-2.94-.31-5.88-.52-9.93-3.18,2.43-5.65,4.21-8,6.13-42.23,34.56-84.46,69.13-126.64,103.74-1.78,1.46-3.16,3.4-4.72,5.11-2.93-.95-5.8-2.31-8.81-2.78-40.79-6.39-81.59-12.69-122.4-18.95-44.26-6.79-88.53-13.52-132.8-20.3-24.19-3.71-48.39-7.37-72.54-11.29-4.45-.72-5.62,.69-5.59,4.83,.03,4.78-.49,9.57-.77,14.35-.07-1.16-.23-2.32-.21-3.48,.08-5.64-1.54-12.21,.82-16.66,2.33-4.39,8.73-6.61,13.32-9.82,7.15-4.99,14.29-10.01,21.43-15.03,.54-.38,.99-.87,1.5-1.32-1.06-.52-2.12-1.04-3.18-1.56,16.8,2.44,33.61,4.81,50.4,7.33,48.08,7.21,96.16,14.47,144.23,21.75,35.73,5.41,71.45,10.88,107.16,16.34,6.64,1.02,7.3,.54,7.33-6.09,.04-12,0-24,.09-36,.02-2.13,.54-4.25,.83-6.37Z"/>
      <path class="cls-3" d="M860.15,1225v-22.18c-1.59,.98-2.62,1.38-3.35,2.09-7.83,7.45-15.68,14.89-23.41,22.45-20.93,20.48-41.74,41.09-62.72,61.52-13.94,13.57-28.05,26.98-42.19,40.34-2.99,2.82-4.51,5.8-4.41,10.02,.23,9.81,.1,19.64,0,29.46-.02,2.12-.54,4.24-.83,6.37-.03-11.66-.22-23.32,0-34.98,.09-4.61-1.66-6.35-6.14-7.15-46.05-8.29-92.07-16.77-138.09-25.22-61.09-11.21-122.18-22.41-183.25-33.74-4.24-.79-5.73,.2-5.66,4.59,.19,13.33,.14,26.66,.09,39.98,0,2.12-.53,4.24-.81,6.36-.05-16.75-.55-33.52,.24-50.23,.16-3.31,5.05-6.66,8.21-9.49,6.58-5.89,13.47-11.45,20.23-17.14,19.49,3.44,38.99,6.82,58.47,10.33,77.27,13.91,154.54,27.87,231.81,41.81,3.27,.59,6.56,1.13,9.81,1.85,3.58,.8,5.42-.18,5.16-4.18-.08-1.26,.52-2.57,.8-3.86,.12,2.14,.24,4.27,.4,7.23,1.5-1.07,2.57-1.66,3.43-2.47,12.78-12.11,25.6-24.18,38.28-36.39,14.24-13.71,28.28-27.64,42.56-41.32,9.22-8.83,18.72-17.37,28.1-26.05,3.07,.99,6.09,2.21,9.23,2.92,4.01,.91,8.16,1.22,12.14,2.22,1.17,.29,2.84,2.04,2.83,3.11-.08,7.25-.55,14.51-.89,21.76Z"/>
      <path class="cls-5" d="M340.14,94.01c25.63-10.31,51.27-20.6,76.88-30.94,27.16-10.97,54.3-21.99,81.46-32.97,6.32-2.55,6.34-2.25,6.83,4.51,.41,5.76-1.78,8.55-7.13,10.72-40.72,16.51-81.31,33.33-121.94,50.06-1.07,.44-2.08,1.04-3.11,1.57-.36,2.09-1.04,4.18-1.02,6.27,.35,38.64,.76,77.27,1.23,115.91,.26,22.15,.65,44.29,.97,66.44,.67,45.46,1.33,90.91,2.02,136.37,.21,14.15,.5,28.3,.68,42.45,.03,2.14-.38,4.28-.59,6.42v-15.66c-10.48,5.45-20.32,10.57-30.16,15.69-.42-34.28-.76-68.56-1.27-102.84-.58-39.6-1.31-79.19-1.97-118.78-.67-40.09-1.32-80.19-2.03-120.28-.2-11.64-.56-23.28-.85-34.92Z"/>
      <path class="cls-3" d="M729.22,515.96c9.56-6.04,19.11-12.08,28.69-18.09,1.68-1.05,3.47-1.94,5.21-2.9,.02,6.63,.27,13.27-.01,19.88-.18,4.4,1.44,6.39,5.81,6.67,3.43,.22,6.84,.93,10.26,1.42-3.54,1.17-7.49,1.69-10.57,3.61-13.29,8.27-26.33,16.94-39.45,25.47-14.86-1.8-29.73-3.6-44.59-5.41-26.42-3.21-52.85-6.41-79.27-9.66-22.29-2.75-44.57-5.61-66.87-8.36-29.06-3.58-58.13-7.07-87.19-10.64-22.79-2.8-45.57-5.66-68.35-8.48-1.65-.2-3.31-.33-4.97-.5,7.19-4.23,14.33-8.54,21.57-12.66,8.55-4.87,17.2-9.57,26.38-14.67-1.26-.4-1.93-.61-2.6-.82,7.07,.52,14.16,.79,21.2,1.61,26.59,3.1,53.16,6.38,79.74,9.6,29.22,3.54,58.44,7.11,87.66,10.63,26.09,3.15,52.17,6.25,78.26,9.37,11.72,1.4,23.45,2.79,35.18,4.12,1.28,.15,2.61-.1,3.91-.17Z"/>
      <path class="cls-1" d="M390.33,1336.11c.27,1.62,.76,3.23,.77,4.85,.08,17.71,.11,35.42,.08,53.12,0,1.61-.54,3.21-.83,4.82,0-20.93-.01-41.86-.02-62.79Z"/>
      <path class="cls-6" d="M379.32,589.1c.27,1.62,.76,3.23,.77,4.85,.08,17.38,.11,34.75,.08,52.13,0,1.61-.54,3.21-.83,4.82,0-20.6-.01-41.2-.02-61.8Z"/>
      <path class="cls-2" d="M385.33,999.11c.27,1.62,.76,3.24,.77,4.86,.05,19.07,.03,38.14,.03,57.21-.33-1.22-.95-2.44-.95-3.66,0-19.47,.09-38.94,.16-58.42Z"/>
      <path class="cls-8" d="M387.33,1132.11c.27,1.62,.76,3.23,.77,4.85,.08,17.04,.11,34.08,.08,51.13,0,1.61-.54,3.21-.82,4.82,0-20.27-.01-40.53-.02-60.8Z"/>
      <path class="cls-8" d="M381.33,726.11c.27,1.62,.76,3.23,.77,4.85,.08,17.04,.11,34.08,.08,51.13,0,1.61-.54,3.21-.82,4.82,0-20.27-.01-40.53-.02-60.8Z"/>
      <path class="cls-1" d="M393.32,1539.11c.26,1.12,.74,2.24,.74,3.36,.05,18.86,.04,37.72,.04,56.58-.33-1.21-.95-2.41-.95-3.62,0-18.77,.09-37.55,.16-56.32Z"/>
      <path class="cls-6" d="M378.33,521.11c0,19.93,.01,39.86,.02,59.8,0-19.93-.01-39.86-.02-59.8Z"/>
      <path class="cls-6" d="M380.32,657.1c0,19.6,.01,39.2,.02,58.8,0-19.6-.01-39.2-.02-58.8Z"/>
      <path class="cls-8" d="M382.33,793.11c.23,.79,.66,1.58,.67,2.37,.07,18.03,.1,36.05,.08,54.08,0,.78-.48,1.56-.73,2.34,0-19.6-.01-39.2-.02-58.79Z"/>
      <path class="cls-1" d="M391.32,1403.11c.23,.79,.67,1.58,.67,2.37,.07,17.69,.1,35.39,.08,53.08,0,.78-.47,1.56-.73,2.34,0-19.26-.02-38.53-.03-57.79Z"/>
      <path class="cls-1" d="M392.32,1471.11c.23,.79,.67,1.58,.67,2.37,.07,17.69,.1,35.39,.08,53.08,0,.78-.48,1.56-.73,2.34,0-19.26-.01-38.53-.02-57.79Z"/>
      <path class="cls-2" d="M386.33,1066.11c.26,1.28,.74,2.57,.75,3.85,.08,16.04,.11,32.07,.08,48.11,0,1.28-.52,2.55-.8,3.83,0-18.6-.02-37.19-.03-55.79Z"/>
      <path class="cls-3" d="M384.33,932.11c.27,1.61,.75,3.23,.76,4.84,.08,15.04,.11,30.08,.08,45.12,0,1.61-.53,3.21-.81,4.82,0-18.26-.02-36.52-.03-54.78Z"/>
      <path class="cls-8" d="M388.33,1200.11c.28,7.44,.53,14.89,.84,22.33,.29,6.95,.65,13.89,.97,20.83-.67-1.29-1.91-2.57-1.92-3.87-.08-13.1,.04-26.19,.1-39.29Z"/>
      <path class="cls-9" d="M13.17,395c.06,8.3,.12,16.61,.17,24.91-.06-8.3-.12-16.61-.17-24.91Z"/>
      <path class="cls-2" d="M7.32,235.11c.27,8.36,.53,16.72,.8,25.08-.33-4.21-.8-8.41-.94-12.62-.13-4.15,.08-8.3,.14-12.45Z"/>
      <path class="cls-2" d="M5.32,181.11c0,8.26,.02,16.53,.02,24.79,0-8.26-.02-16.53-.02-24.79Z"/>
      <path class="cls-3" d="M2.32,101.11c.27,8.36,.53,16.72,.8,25.08-.32-4.21-.8-8.41-.93-12.63-.13-4.15,.07-8.3,.13-12.45Z"/>
    </g>
  </g>
</svg>